<?xml version="1.0" encoding="UTF-8" standalone="no"?>
<svg
   xmlns:dc="http://purl.org/dc/elements/1.1/"
   xmlns:cc="http://creativecommons.org/ns#"
   xmlns:rdf="http://www.w3.org/1999/02/22-rdf-syntax-ns#"
   xmlns:svg="http://www.w3.org/2000/svg"
   xmlns="http://www.w3.org/2000/svg"
   xmlns:sodipodi="http://sodipodi.sourceforge.net/DTD/sodipodi-0.dtd"
   xmlns:inkscape="http://www.inkscape.org/namespaces/inkscape"
   width="512"
   height="512"
   viewBox="0 0 135.46666 135.46667"
   version="1.1"
   id="svg8"
   inkscape:version="1.0.2-2 (e86c870879, 2021-01-15)"
   sodipodi:docname="alien.svg"
   inkscape:export-filename="C:\Users\orang\Documents\Projects\card-creator\res\binding_icons\alien.png"
   inkscape:export-xdpi="96.000008"
   inkscape:export-ydpi="96.000008">
  <defs
     id="defs2" />
  <sodipodi:namedview
     id="base"
     pagecolor="#000000"
     bordercolor="#666666"
     borderopacity="1.0"
     inkscape:pageopacity="0"
     inkscape:pageshadow="2"
     inkscape:zoom="0.7"
     inkscape:cx="333.9111"
     inkscape:cy="353.28154"
     inkscape:document-units="px"
     inkscape:current-layer="layer1"
     inkscape:document-rotation="0"
     showgrid="false"
     units="px"
     inkscape:snap-page="true"
     inkscape:window-width="1267"
     inkscape:window-height="1045"
     inkscape:window-x="147"
     inkscape:window-y="0"
     inkscape:window-maximized="0" />
  <metadata
     id="metadata5">
    <rdf:RDF>
      <cc:Work
         rdf:about="">
        <dc:format>image/svg+xml</dc:format>
        <dc:type
           rdf:resource="http://purl.org/dc/dcmitype/StillImage" />
        <dc:title></dc:title>
      </cc:Work>
    </rdf:RDF>
  </metadata>
  <g
     inkscape:label="Layer 1"
     inkscape:groupmode="layer"
     id="layer1">
    <path
       id="path1414"
       style="fill:#ffffff;stroke:none;stroke-width:3.78444;stroke-linecap:square;stroke-linejoin:round;paint-order:stroke fill markers;stop-color:#000000"
       d="m 67.733332,5.032766 c 27.650162,0 48.930868,22.414998 48.930868,50.06516 0,27.650162 -33.81182,68.532404 -48.930868,75.335974 z m 18.785417,34.464046 c -5.219838,0 -14.552084,9.451102 -14.552084,9.451102 0,0 9.332246,9.451102 14.552084,9.451102 5.219837,0 14.552081,-9.451102 14.552081,-9.451102 0,0 -9.332244,-9.451102 -14.552081,-9.451102 z M 67.733332,5.0327676 c -27.650161,0 -48.930862,22.4149984 -48.930862,50.0651604 0,27.650162 33.811814,68.532402 48.930862,75.335972 z M 48.947916,39.496814 c 5.219838,0 14.552083,9.451102 14.552083,9.451102 0,0 -9.332245,9.451102 -14.552083,9.451102 -5.219837,0 -14.552083,-9.451102 -14.552083,-9.451102 0,0 9.332246,-9.451102 14.552083,-9.451102 z" />
  </g>
</svg>
