<?xml version="1.0" encoding="UTF-8" standalone="no"?>
<!-- Created with Inkscape (http://www.inkscape.org/) -->

<svg
   width="128"
   height="128"
   viewBox="0 0 33.866666 33.866667"
   version="1.1"
   id="svg539"
   inkscape:version="1.2.1 (9c6d41e410, 2022-07-14)"
   sodipodi:docname="energy.svg"
   xmlns:inkscape="http://www.inkscape.org/namespaces/inkscape"
   xmlns:sodipodi="http://sodipodi.sourceforge.net/DTD/sodipodi-0.dtd"
   xmlns="http://www.w3.org/2000/svg"
   xmlns:svg="http://www.w3.org/2000/svg">
  <sodipodi:namedview
     id="namedview541"
     pagecolor="#505050"
     bordercolor="#ffffff"
     borderopacity="1"
     inkscape:showpageshadow="0"
     inkscape:pageopacity="0"
     inkscape:pagecheckerboard="1"
     inkscape:deskcolor="#505050"
     inkscape:document-units="px"
     showgrid="false"
     inkscape:zoom="1"
     inkscape:cx="-37.5"
     inkscape:cy="77.5"
     inkscape:window-width="1920"
     inkscape:window-height="1010"
     inkscape:window-x="-6"
     inkscape:window-y="-6"
     inkscape:window-maximized="1"
     inkscape:current-layer="layer1" />
  <defs
     id="defs536" />
  <g
     inkscape:label="Layer 1"
     inkscape:groupmode="layer"
     id="layer1">
    <path
       id="path1229"
       style="color:#000000;fill:#ffffff;stroke-linecap:round;stroke-linejoin:round;-inkscape-stroke:none;paint-order:markers stroke fill"
       d="M 16.93385 0.048575846 C 15.783887 0.048575856 14.719779 0.61263039 13.823962 1.5192871 C 12.928145 2.4259439 12.166069 3.6837566 11.529529 5.2069173 C 11.339216 5.6623119 11.161904 6.1446484 10.995194 6.6461059 C 10.476896 6.5395673 9.9701841 6.4517162 9.4800415 6.3887573 C 7.8426753 6.178437 6.3738678 6.2109792 5.1407715 6.5334513 C 3.907675 6.8559234 2.8854347 7.4940241 2.3104533 8.489921 C 1.735472 9.4858181 1.6930879 10.691591 2.030367 11.920719 C 2.3676462 13.149849 3.0748947 14.436586 4.0757202 15.749426 C 4.3751132 16.142158 4.7043622 16.536977 5.0555053 16.9323 C 4.7039938 17.327985 4.3743544 17.723115 4.0746867 18.116207 C 3.0738612 19.429047 2.3676463 20.717335 2.030367 21.946464 C 1.6930882 23.175593 1.7349552 24.379815 2.3099365 25.375712 C 2.5685644 25.823669 2.9182514 26.198862 3.3362305 26.505876 C 3.3702047 26.016812 3.5089278 25.534193 3.7315552 25.092008 C 3.6262452 24.973804 3.5341745 24.848036 3.4566365 24.713737 C 3.0955053 24.088239 3.0327422 23.29359 3.3062581 22.29683 C 3.5797741 21.30007 4.1985623 20.136389 5.1268188 18.918742 C 5.3827835 18.582978 5.663955 18.242743 5.9650106 17.900716 C 7.0434386 18.988731 8.3016907 20.068127 9.7136189 21.101037 C 9.9021503 22.840282 10.207715 24.46978 10.610722 25.94777 C 10.549783 25.959999 10.490868 25.969221 10.430371 25.980843 C 10.516265 26.423207 10.526992 26.880714 10.456209 27.323397 C 10.634375 27.290994 10.813551 27.256759 10.994678 27.219527 C 11.161533 27.721546 11.33902 28.204403 11.529529 28.660266 C 12.166069 30.183426 12.928145 31.44124 13.823962 32.347896 C 14.719779 33.254553 15.783887 33.818607 16.93385 33.818607 C 18.083813 33.818607 19.147404 33.254553 20.043221 32.347896 C 20.939038 31.44124 21.701113 30.183426 22.337655 28.660266 C 22.52824 28.204216 22.70611 27.721253 22.873022 27.21901 C 23.390713 27.325382 23.897031 27.412953 24.386625 27.475842 C 26.023991 27.686162 27.493315 27.656204 28.726412 27.333732 C 29.959508 27.011259 30.980715 26.370575 31.555696 25.374678 C 31.900786 24.776966 32.0529 24.104347 32.047656 23.396505 C 31.631251 23.583352 31.177715 23.681675 30.719055 23.698295 C 30.686769 24.077434 30.582936 24.415149 30.410547 24.713737 C 30.049415 25.339234 29.392043 25.792199 28.392065 26.053707 C 27.392088 26.315214 26.073216 26.360913 24.554573 26.165845 C 24.13645 26.112136 23.701956 26.038838 23.255945 25.94932 C 23.659162 24.470916 23.964967 22.840898 24.153564 21.101037 C 25.355767 20.221535 26.445362 19.307941 27.408663 18.384407 C 27.743881 17.787589 28.2337 17.278011 28.823563 16.946252 C 28.819568 16.941747 28.815679 16.937322 28.811678 16.932816 C 29.163036 16.537309 29.492475 16.142304 29.79198 15.749426 C 30.792806 14.436587 31.499021 13.148298 31.836299 11.919169 C 32.173579 10.69004 32.131711 9.4858179 31.55673 8.489921 C 30.981749 7.4940241 29.960025 6.8559232 28.726929 6.5334513 C 27.493832 6.2109789 26.025025 6.1784372 24.387659 6.3887573 C 24.194537 6.4135638 23.998148 6.442906 23.800098 6.4750569 C 23.771717 6.5042774 23.744579 6.53413 23.714831 6.5623901 C 22.776005 7.611092 21.255215 7.8511977 19.971907 7.4259033 C 18.982486 7.7503759 17.965973 8.139888 16.93385 8.5953409 C 15.33371 7.8891885 13.769828 7.3393673 12.288656 6.9494466 C 12.434184 6.5184883 12.587596 6.1058761 12.750126 5.7169637 C 13.34051 4.3042465 14.039046 3.1847145 14.765507 2.4494629 C 15.491968 1.714211 16.211588 1.3709757 16.93385 1.3709757 C 17.406378 1.3709758 17.877533 1.5187618 18.350301 1.8262451 C 18.630019 1.4650037 18.971919 1.154298 19.359542 0.92087402 C 18.623816 0.3713516 17.803615 0.048575854 16.93385 0.048575846 z M 7.4429565 7.5814493 C 8.0205739 7.5765771 8.6466539 7.6154788 9.3110595 7.7008219 C 9.7296765 7.7545933 10.16467 7.8281979 10.611239 7.9178629 C 10.208219 9.3955394 9.9022385 11.024666 9.7136189 12.763562 C 8.301037 13.796865 7.0427934 14.876977 5.963977 15.965434 C 5.6632177 15.623705 5.3820467 15.284434 5.1263021 14.948958 C 4.1980459 13.73131 3.5797741 12.567113 3.3062581 11.570353 C 3.0327421 10.573593 3.0944718 9.776877 3.455603 9.1513793 C 3.8167342 8.5258818 4.4751405 8.0749847 5.475118 7.8134765 C 6.0376053 7.6663782 6.7003055 7.5877137 7.4429565 7.5814493 z M 26.423193 7.5819661 C 27.166312 7.5879601 27.829578 7.6663784 28.392065 7.8134765 C 29.392043 8.074985 30.048898 8.5263984 30.41003 9.1518961 C 30.771162 9.7773939 30.834958 10.573593 30.561442 11.570353 C 30.287925 12.567114 29.666554 13.730278 28.738297 14.947925 C 28.482811 15.283061 28.202036 15.622449 27.901656 15.963883 C 26.823315 14.875956 25.565355 13.796397 24.153564 12.763562 C 23.964972 11.024905 23.659399 9.3958955 23.256461 7.9183797 C 23.702308 7.8289062 24.136597 7.7555447 24.554573 7.7018554 C 25.21898 7.6165122 25.845212 7.5773041 26.423193 7.5819661 z M 11.902633 8.218103 C 12.99116 8.5035056 14.137832 8.8843257 15.317928 9.3565348 C 14.618021 9.7062371 13.914668 10.082847 13.211597 10.488765 C 12.508963 10.894431 11.831504 11.314585 11.179163 11.745536 C 11.360639 10.487324 11.605196 9.3035433 11.902633 8.218103 z M 21.964551 8.218103 C 22.262026 9.3036886 22.506535 10.487652 22.688021 11.746053 C 22.035204 11.314742 21.357225 10.893717 20.654036 10.487732 C 19.951447 10.082091 19.2486 9.7059854 18.549255 9.3565348 C 19.729324 8.8844121 20.876077 8.5034152 21.964551 8.218103 z M 16.93385 10.051583 C 17.94392 10.516818 18.968368 11.043919 19.992061 11.634949 C 21.016678 12.226511 21.985562 12.850492 22.89421 13.493233 C 22.99657 14.600731 23.052856 15.751635 23.052856 16.93385 C 23.052856 18.116065 22.99657 19.266452 22.89421 20.37395 C 21.985665 21.01687 21.016678 21.641189 19.992061 22.232751 C 18.968204 22.823876 17.943663 23.350489 16.933333 23.8156 C 15.922766 23.350193 14.897785 22.823047 13.873572 22.231718 C 12.849594 21.640523 11.881132 21.016784 10.972974 20.374467 C 10.870582 19.266811 10.814327 18.116248 10.814327 16.93385 C 10.814327 15.751635 10.870613 14.600731 10.972974 13.493233 C 11.881182 12.850873 12.849528 12.226698 13.873572 11.635465 C 14.897976 11.044026 15.923099 10.517053 16.93385 10.051583 z M 9.5647908 14.543298 C 9.5176734 15.324305 9.4924438 16.121882 9.4924438 16.93385 C 9.4924438 17.745995 9.5176531 18.543232 9.5647908 19.324402 C 8.5649719 18.537936 7.6612918 17.73444 6.8693481 16.93385 C 7.6612488 16.133297 8.5650323 15.32973 9.5647908 14.543298 z M 24.302392 14.543298 C 25.301485 15.329289 26.204297 16.132727 26.995768 16.932816 C 26.204559 17.733014 25.301664 18.536689 24.302909 19.322851 C 24.349985 18.54218 24.375256 17.745453 24.375256 16.93385 C 24.375256 16.121882 24.34951 15.324305 24.302392 14.543298 z M 11.178646 22.119063 C 11.831461 22.550374 12.509442 22.970881 13.21263 23.376868 C 13.915909 23.782905 14.619455 24.159877 15.319478 24.509615 C 14.138871 24.981773 12.991089 25.362231 11.902116 25.64753 C 11.604667 24.561769 11.360074 23.37764 11.178646 22.119063 z M 22.688537 22.119063 C 22.507023 23.378244 22.262191 24.562892 21.964551 25.64908 C 20.875366 25.363582 19.727552 24.982682 18.546671 24.510132 C 19.24658 24.160442 19.949841 23.783872 20.653003 23.377901 C 21.356533 22.971717 22.035342 22.550646 22.688537 22.119063 z M 16.933333 25.269775 C 18.534001 25.976135 20.097966 26.525756 21.579561 26.91567 C 21.43382 27.347409 21.279856 27.760662 21.117057 28.15022 C 20.526673 29.562936 19.828139 30.682468 19.101676 31.41772 C 18.375216 32.152973 17.656112 32.496208 16.93385 32.496208 C 16.211588 32.496208 15.491968 32.152973 14.765507 31.41772 C 14.039046 30.682468 13.34051 29.562936 12.750126 28.15022 C 12.587404 27.760846 12.43382 27.347704 12.288139 26.916186 C 13.769455 26.526218 15.333036 25.976034 16.933333 25.269775 z " />
    <circle
       style="fill:#ffffff;fill-opacity:1;stroke:none;stroke-width:2.11667;stroke-linecap:round;stroke-linejoin:round;stroke-dasharray:none;paint-order:markers stroke fill;stop-color:#000000"
       id="circle1785"
       cx="16.933332"
       cy="16.933332"
       r="4.1835394" />
    <circle
       style="fill:#ffffff;fill-opacity:1;stroke:none;stroke-width:2.11667;stroke-linecap:round;stroke-linejoin:round;stroke-dasharray:none;paint-order:markers stroke fill;stop-color:#000000"
       id="circle474"
       cx="21.144522"
       cy="4.0514345"
       r="2.5462043" />
    <circle
       style="fill:#ffffff;fill-opacity:1;stroke:none;stroke-width:2.11667;stroke-linecap:round;stroke-linejoin:round;stroke-dasharray:none;paint-order:markers stroke fill;stop-color:#000000"
       id="circle478"
       cx="30.521986"
       cy="20.127089"
       r="2.5462043" />
    <circle
       style="fill:#ffffff;fill-opacity:1;stroke:none;stroke-width:2.11667;stroke-linecap:round;stroke-linejoin:round;stroke-dasharray:none;paint-order:markers stroke fill;stop-color:#000000"
       id="circle480"
       cx="6.9294758"
       cy="26.676428"
       r="2.5462043" />
  </g>
</svg>
