<?xml version="1.0" encoding="UTF-8" standalone="no"?>
<!-- Created with Inkscape (http://www.inkscape.org/) -->

<svg
   width="128"
   height="128"
   viewBox="0 0 33.866667 33.866666"
   version="1.1"
   id="svg5"
   sodipodi:docname="faction.svg"
   inkscape:version="1.2.1 (9c6d41e410, 2022-07-14)"
   xmlns:inkscape="http://www.inkscape.org/namespaces/inkscape"
   xmlns:sodipodi="http://sodipodi.sourceforge.net/DTD/sodipodi-0.dtd"
   xmlns="http://www.w3.org/2000/svg"
   xmlns:svg="http://www.w3.org/2000/svg">
  <sodipodi:namedview
     id="namedview7"
     pagecolor="#505050"
     bordercolor="#ffffff"
     borderopacity="1"
     inkscape:showpageshadow="0"
     inkscape:pageopacity="0"
     inkscape:pagecheckerboard="1"
     inkscape:deskcolor="#505050"
     inkscape:document-units="px"
     showgrid="false"
     inkscape:zoom="4.7290963"
     inkscape:cx="64.811537"
     inkscape:cy="70.520874"
     inkscape:window-width="1920"
     inkscape:window-height="1010"
     inkscape:window-x="-6"
     inkscape:window-y="-6"
     inkscape:window-maximized="1"
     inkscape:current-layer="layer1" />
  <defs
     id="defs2" />
  <g
     inkscape:label="Layer 1"
     inkscape:groupmode="layer"
     id="layer1">
    <g
       id="g3412"
       transform="matrix(0.68547855,0,0,0.68547855,5.3258965,5.9193891)">
      <path
         id="path299"
         style="fill:#ffffff;stroke:none;stroke-width:0.264583px;stroke-linecap:butt;stroke-linejoin:miter;stroke-opacity:1"
         d="M 7.7618001,19.216398 C 0.06301385,23.838041 0,33.866667 0,33.866667 h 33.866667 c 0,0 -0.06301,-10.028626 -7.761801,-14.650269 a 11.879871,11.879871 0 0 1 -9.171533,4.33772 11.879871,11.879871 0 0 1 -9.1715329,-4.33772 z" />
      <circle
         style="fill:none;stroke:#ffffff;stroke-width:3.175;stroke-dasharray:none;paint-order:markers stroke fill;stop-color:#000000"
         id="path449"
         cx="16.933332"
         cy="11.674223"
         r="9.3062649" />
    </g>
    <g
       id="g3424"
       transform="matrix(0.60673553,0,0,0.60673553,15.161718,4.2585426)">
      <path
         id="path3420"
         style="fill:#ffffff;stroke:none;stroke-width:0.264583px;stroke-linecap:butt;stroke-linejoin:miter;stroke-opacity:1"
         d="m 26.105235,19.216321 a 11.879871,11.879871 0 0 1 -9.172093,4.337773 11.879871,11.879871 0 0 1 -3.038911,-0.410526 c -0.254252,0.421138 -0.223836,0.758272 0.508472,0.986283 3.481985,2.316101 5.831125,5.835077 7.174828,9.736779 h 12.289361 c 0,0 -0.06287,-10.02867 -7.761657,-14.650309 z" />
      <path
         id="circle3422"
         style="color:#000000;fill:#ffffff;paint-order:markers stroke fill"
         d="m 16.933993,0.78100104 c -3.127155,0 -5.953345,1.33320586 -7.9439235,3.45710156 0.9499955,0.4937333 1.8399255,1.1026823 2.6428645,1.814148 1.379996,-1.3009903 3.242343,-2.0969166 5.301059,-2.0969166 4.281751,0 7.71822,3.4364692 7.71822,7.71822 0,4.281751 -3.436469,7.719072 -7.71822,7.719072 -0.430152,0 -0.851765,-0.03631 -1.262238,-0.103058 -0.268886,1.041137 -0.670243,2.048853 -1.206877,2.992067 0.794033,0.185437 1.620215,0.287027 2.469115,0.287027 5.997645,0 10.892553,-4.897463 10.892553,-10.895108 0,-5.9976447 -4.894908,-10.89255296 -10.892553,-10.89255296 z" />
    </g>
    <g
       id="g3444"
       transform="matrix(0.60673553,0,0,0.60673553,-1.8431632,4.2585426)">
      <path
         id="path3440"
         style="fill:#ffffff;stroke:none;stroke-width:0.264583px;stroke-linecap:butt;stroke-linejoin:miter;stroke-opacity:1"
         d="M 7.7614347,19.216321 C 0.06265619,23.83796 -2.2255293e-4,33.86663 -2.2255293e-4,33.86663 H 12.289991 c 1.446915,-4.185787 4.051401,-7.949848 7.931148,-10.211183 -0.110103,-0.161428 -0.216834,-0.326306 -0.321096,-0.493993 a 11.879871,11.879871 0 0 1 -2.966515,0.39264 11.879871,11.879871 0 0 1 -9.1720933,-4.337773 z" />
      <path
         id="circle3442"
         style="color:#000000;fill:#ffffff;paint-order:markers stroke fill"
         d="m 16.933528,0.78100104 c -5.997645,0 -10.8942562,4.89490826 -10.8942562,10.89255296 0,5.997645 4.8966112,10.895108 10.8942562,10.895108 0.84797,0 1.672541,-0.101133 2.465708,-0.286175 -0.495748,-0.938993 -0.90046,-1.948846 -1.183029,-2.996325 -0.417128,0.06901 -0.845143,0.106464 -1.282679,0.106464 -4.281751,0 -7.7190715,-3.437321 -7.7190715,-7.719072 0,-4.2817508 3.4373205,-7.71822 7.7190715,-7.71822 2.065599,0 3.933324,0.8009584 5.314687,2.1096923 C 23.050099,5.3564071 23.932963,4.7393934 24.8766,4.2381026 22.886508,2.1139573 20.060894,0.78100104 16.933528,0.78100104 Z" />
    </g>
  </g>
</svg>
