<?xml version="1.0" encoding="UTF-8" standalone="no"?>
<!-- Created with Inkscape (http://www.inkscape.org/) -->

<svg
   width="549.65814"
   height="549.65674"
   viewBox="0 0 549.65814 549.65677"
   version="1.1"
   id="svg135"
   xml:space="preserve"
   sodipodi:docname="atk.svg"
   inkscape:version="1.2.1 (9c6d41e410, 2022-07-14)"
   xmlns:inkscape="http://www.inkscape.org/namespaces/inkscape"
   xmlns:sodipodi="http://sodipodi.sourceforge.net/DTD/sodipodi-0.dtd"
   xmlns="http://www.w3.org/2000/svg"
   xmlns:svg="http://www.w3.org/2000/svg"><sodipodi:namedview
     id="namedview137"
     pagecolor="#474747"
     bordercolor="#ffffff"
     borderopacity="1"
     inkscape:showpageshadow="0"
     inkscape:pageopacity="0"
     inkscape:pagecheckerboard="1"
     inkscape:deskcolor="#505050"
     inkscape:document-units="px"
     showgrid="false"
     inkscape:zoom="1.345"
     inkscape:cx="203.34573"
     inkscape:cy="341.63569"
     inkscape:window-width="1920"
     inkscape:window-height="1010"
     inkscape:window-x="-6"
     inkscape:window-y="-6"
     inkscape:window-maximized="1"
     inkscape:current-layer="layer1" /><defs
     id="defs132" /><g
     inkscape:label="Layer 1"
     inkscape:groupmode="layer"
     id="layer1"
     transform="translate(-596.70225,271.22746)"><path
       style="fill:#000000;stroke-width:1.33333"
       id="path6496"
       d="" /><path
       style="fill:#000000;stroke-width:1.33333"
       id="path6494"
       d="" /><path
       id="path6607"
       style="fill:#000000;stroke-width:1.62985"
       d="m 1146.3604,-271.22746 -92.7129,50.45373 -80.38221,50.45373 c 0,0 -75.74029,74.304892 -121.22325,121.382027 C 806.55908,-1.8608366 749.89227,63.780016 749.89227,63.780016 l -8.16078,3.217726 -9.7747,-7.877169 C 717.65034,47.592263 691.87035,26.978813 691.87035,26.978813 L 677.51048,63.70742 c 0,0 23.20365,9.275187 29.31231,16.451574 3.88591,3.225021 2.67661,8.815417 -4.09896,18.961923 -7.06061,10.573333 -9.75762,19.578663 -9.81861,32.768083 -0.0219,4.74405 -1.68989,10.59351 -1.6899,10.5935 0,0 -7.84746,9.59983 -19.5382,21.29058 -11.69073,11.69074 -28.54627,18.51147 -37.81073,19.12906 -9.26448,0.61758 -13.54428,-1.39939 -27.01804,-1.6747 -9.08638,-0.13647 -10.14612,2.61252 -10.1461,26.31575 0,17.30359 0.24003,18.55596 5.72302,29.95553 3.23794,6.73198 9.07587,15.30324 13.44654,19.74357 0.22212,0.22568 0.84152,0.63688 1.12435,0.89476 0.25746,0.28233 0.66771,0.90084 0.89305,1.12266 4.44034,4.37066 13.0116,10.2086 19.74357,13.44655 11.39956,5.48299 12.65194,5.72302 29.95552,5.72302 23.70321,10e-6 26.4522,-1.05972 26.31573,-10.14611 -0.27532,-13.47378 -2.29229,-17.75357 -1.6747,-27.01806 0.61759,-9.26447 7.43833,-26.12001 19.12906,-37.81075 11.69074,-11.69074 21.29224,-19.53653 21.29224,-19.53653 10e-6,1e-5 5.84945,-1.66795 10.5935,-1.68988 13.18942,-0.061 22.19474,-2.75801 32.76806,-9.81862 10.14651,-6.77559 15.73521,-7.98657 18.96023,-4.10065 7.17639,6.10866 16.45157,29.31232 16.45157,29.31232 l 36.72858,-14.35988 c 0,0 -20.61345,-25.78001 -32.14173,-40.08645 l -7.87718,-9.77472 3.21773,-8.16079 c 0,0 65.64083,-56.666824 112.71793,-102.149816 C 971.1464,-22.393648 1045.4513,-98.13399 1045.4513,-98.13399 l 50.4537,-80.38225 z"
       sodipodi:nodetypes="ccczccccccsscsscsssccsscsscsscccccczccc" /></g></svg>
