<?xml version="1.0" encoding="UTF-8" standalone="no"?>
<!-- Created with Inkscape (http://www.inkscape.org/) -->

<svg
   width="128"
   height="128"
   viewBox="0 0 33.866666 33.866667"
   version="1.1"
   id="svg539"
   inkscape:version="1.2.1 (9c6d41e410, 2022-07-14)"
   sodipodi:docname="react.svg"
   xmlns:inkscape="http://www.inkscape.org/namespaces/inkscape"
   xmlns:sodipodi="http://sodipodi.sourceforge.net/DTD/sodipodi-0.dtd"
   xmlns="http://www.w3.org/2000/svg"
   xmlns:svg="http://www.w3.org/2000/svg">
  <sodipodi:namedview
     id="namedview541"
     pagecolor="#505050"
     bordercolor="#ffffff"
     borderopacity="1"
     inkscape:showpageshadow="0"
     inkscape:pageopacity="0"
     inkscape:pagecheckerboard="1"
     inkscape:deskcolor="#505050"
     inkscape:document-units="px"
     showgrid="false"
     inkscape:zoom="2.9540685"
     inkscape:cx="-11.340292"
     inkscape:cy="71.257658"
     inkscape:window-width="1920"
     inkscape:window-height="1010"
     inkscape:window-x="-6"
     inkscape:window-y="-6"
     inkscape:window-maximized="1"
     inkscape:current-layer="layer1" />
  <defs
     id="defs536" />
  <g
     inkscape:label="Layer 1"
     inkscape:groupmode="layer"
     id="layer1">
    <path
       id="path4211"
       style="fill:#000000;stroke:none;stroke-width:0.210476px;stroke-linecap:butt;stroke-linejoin:miter;stroke-opacity:1"
       d="m 25.038809,19.278429 -2.29495,8.64185 c 1.81094,1.80583 3.391007,3.385323 3.391007,3.385323 l -0.579809,0.619084 -9.682096,-9.68158 a 2.5293601,2.5293601 0 0 0 -3.577043,0 2.5293601,2.5293601 0 0 0 0,3.576526 l 9.799402,9.799402 8.251176,12.143961 8.215002,-6.236828 -8.623763,-7.540108 -3.431315,-12.808004 c -0.23646,-0.860597 -0.733076,-1.487296 -1.467611,-1.899626 z m -14.337628,9.656258 0.527101,1.966289 c 0.787382,1.614711 2.042169,2.808811 4.718059,2.723864 h 2.96416 c -1.06509,-1.06509 -2.130436,-2.13019 -3.19567,-3.195154 z" />
    <path
       id="rect4221"
       style="color:#000000;fill:#000000;stroke-linecap:square;paint-order:markers stroke fill"
       d="M 9.476638 -2.308555 L 9.476485 -1.5137668 L 9.4765834 24.113035 L 20.476579 24.112784 L 18.113141 22.525707 L 11.064244 22.52544 L 11.064233 -0.72089438 L 26.189595 -0.72087134 L 26.189557 18.54853 L 27.777185 19.457113 L 27.777255 -2.3084662 L 9.476638 -2.308555 z "
       transform="rotate(15.217947)" />
    <g
       aria-label="!"
       transform="rotate(14.587709)"
       id="text4288"
       style="font-weight:bold;font-size:19.7936px;line-height:1.8;font-family:'Aardvark Cafe';-inkscape-font-specification:'Aardvark Cafe Bold';text-align:end;text-anchor:end;fill:#000000;stroke-width:7.42261;stroke-linecap:square;paint-order:markers stroke fill;stop-color:#000000">
      <path
         d="m 17.439537,12.95549 q 0.672982,0.03959 1.108441,0.455253 0.435459,0.415666 0.356285,1.068855 -0.09897,0.811537 -0.851125,1.326171 -0.752157,0.514633 -1.583488,0.455253 -0.653189,-0.03959 -1.049061,-0.455253 -0.455252,-0.435459 -0.376078,-1.068855 0.09897,-0.811537 0.831331,-1.326171 0.752157,-0.514633 1.563695,-0.455253 z M 19.003231,1.0001559 h 2.949246 L 19.042818,11.946017 h -2.929453 l 2.137709,-8.0955827 q -0.672982,0.4156656 -1.583488,0.4156656 -0.27711,0 -0.593808,-0.059381 l 0.49484,-1.9001856 q 0.257317,0.059381 0.49484,0.059381 1.286584,0 1.939773,-1.3657584 z"
         id="path4392"
         style="fill:#000000" />
    </g>
  </g>
</svg>
